<svg width="11" height="16" viewBox="0 0 11 16" fill="none" xmlns="http://www.w3.org/2000/svg">
<path d="M7.92976 5.5C7.92976 6.83761 6.8388 7.92857 5.50119 7.92857C4.16357 7.92857 3.07261 6.83761 3.07261 5.5C3.07261 4.16239 4.16357 3.07143 5.50119 3.07143C6.8388 3.07143 7.92976 4.16239 7.92976 5.5ZM10.3583 5.5C10.3583 2.81529 8.1859 0.642856 5.50119 0.642856C2.81648 0.642856 0.644043 2.81529 0.644043 5.5C0.644043 6.07868 0.710449 6.67634 0.957101 7.1981L4.41971 14.5407C4.60944 14.9581 5.04583 15.2143 5.50119 15.2143C5.95654 15.2143 6.39293 14.9581 6.59215 14.5407L10.0453 7.1981C10.2919 6.67634 10.3583 6.07868 10.3583 5.5Z" fill="white"/>
</svg>
