<svg width="31" height="51" viewBox="0 0 31 51" fill="none" xmlns="http://www.w3.org/2000/svg">
<path d="M18.3839 45.9286C18.3839 47.6719 16.9576 49.0982 15.2143 49.0982C13.471 49.0982 12.0446 47.6719 12.0446 45.9286C12.0446 44.1853 13.471 42.7589 15.2143 42.7589C16.9576 42.7589 18.3839 44.1853 18.3839 45.9286ZM26.625 39.5893C26.625 40.2628 26.0307 40.8571 25.3571 40.8571H5.07143C4.39788 40.8571 3.80357 40.2628 3.80357 39.5893V11.6964C3.80357 11.0229 4.39788 10.4286 5.07143 10.4286H25.3571C26.0307 10.4286 26.625 11.0229 26.625 11.6964V39.5893ZM19.0179 5.99107C19.0179 6.34766 18.7405 6.625 18.3839 6.625H12.0446C11.6881 6.625 11.4107 6.34766 11.4107 5.99107C11.4107 5.63448 11.6881 5.35714 12.0446 5.35714H18.3839C18.7405 5.35714 19.0179 5.63448 19.0179 5.99107ZM30.4286 5.35714C30.4286 2.5837 28.1306 0.285713 25.3571 0.285713H5.07143C2.29799 0.285713 0 2.5837 0 5.35714V45.9286C0 48.702 2.29799 51 5.07143 51H25.3571C28.1306 51 30.4286 48.702 30.4286 45.9286V5.35714Z" fill="#02060E"/>
</svg>
