<svg width="15" height="13" viewBox="0 0 15 13" fill="none" xmlns="http://www.w3.org/2000/svg">
<path d="M14.7833 11.1786C14.7833 10.8465 14.5082 10.5714 14.1762 10.5714H0.819057C0.487026 10.5714 0.211914 10.8465 0.211914 11.1786V12.3929C0.211914 12.7249 0.487026 13 0.819057 13H14.1762C14.5082 13 14.7833 12.7249 14.7833 12.3929V11.1786ZM14.7833 6.32143C14.7833 5.9894 14.5082 5.71429 14.1762 5.71429H0.819057C0.487026 5.71429 0.211914 5.9894 0.211914 6.32143V7.53571C0.211914 7.86775 0.487026 8.14286 0.819057 8.14286H14.1762C14.5082 8.14286 14.7833 7.86775 14.7833 7.53571V6.32143ZM14.7833 1.46429C14.7833 1.13225 14.5082 0.857143 14.1762 0.857143H0.819057C0.487026 0.857143 0.211914 1.13225 0.211914 1.46429V2.67857C0.211914 3.0106 0.487026 3.28571 0.819057 3.28571H14.1762C14.5082 3.28571 14.7833 3.0106 14.7833 2.67857V1.46429Z" fill="white"/>
</svg>
