<svg width="35" height="53" viewBox="0 0 35 53" fill="none" xmlns="http://www.w3.org/2000/svg">
<path d="M25.7143 18C25.7143 22.721 21.8638 26.5714 17.1429 26.5714C12.4219 26.5714 8.57143 22.721 8.57143 18C8.57143 13.279 12.4219 9.42857 17.1429 9.42857C21.8638 9.42857 25.7143 13.279 25.7143 18ZM34.2857 18C34.2857 8.52455 26.6183 0.85714 17.1429 0.85714C7.66741 0.85714 0 8.52455 0 18C0 20.0424 0.234375 22.1518 1.10491 23.9933L13.3259 49.9085C13.9955 51.3817 15.5357 52.2857 17.1429 52.2857C18.75 52.2857 20.2902 51.3817 20.9933 49.9085L33.1808 23.9933C34.0513 22.1518 34.2857 20.0424 34.2857 18Z" fill="black"/>
</svg>
