<svg width="15" height="16" viewBox="0 0 15 16" fill="none" xmlns="http://www.w3.org/2000/svg">
<path d="M8.5 4.58929C8.5 4.41853 8.36719 4.28571 8.19643 4.28571H7.58929C7.41853 4.28571 7.28571 4.41853 7.28571 4.58929V7.92857H5.16071C4.98996 7.92857 4.85714 8.06138 4.85714 8.23214V8.83929C4.85714 9.01004 4.98996 9.14286 5.16071 9.14286H8.19643C8.36719 9.14286 8.5 9.01004 8.5 8.83929V4.58929ZM12.4464 7.92857C12.4464 10.7746 10.1317 13.0893 7.28571 13.0893C4.43973 13.0893 2.125 10.7746 2.125 7.92857C2.125 5.08259 4.43973 2.76786 7.28571 2.76786C10.1317 2.76786 12.4464 5.08259 12.4464 7.92857ZM14.5714 7.92857C14.5714 3.90625 11.308 0.642856 7.28571 0.642856C3.26339 0.642856 0 3.90625 0 7.92857C0 11.9509 3.26339 15.2143 7.28571 15.2143C11.308 15.2143 14.5714 11.9509 14.5714 7.92857Z" fill="black"/>
</svg>
