<svg width="19" height="11" viewBox="0 0 19 11" fill="none" xmlns="http://www.w3.org/2000/svg">
<path d="M18.0332 1.04297C18.1328 0.644531 18.0332 0.3125 17.4355 0.3125H15.4766C14.9785 0.3125 14.7461 0.578125 14.6133 0.876953C14.6133 0.876953 13.6172 3.30078 12.2227 4.89453C11.7578 5.32617 11.5586 5.49219 11.293 5.49219C11.1934 5.49219 10.9941 5.32617 10.9941 4.92773V1.04297C10.9941 0.544922 10.8613 0.3125 10.4297 0.3125H7.375C7.04297 0.3125 6.87695 0.544922 6.87695 0.777344C6.87695 1.24219 7.57422 1.3418 7.64062 2.66992V5.55859C7.64062 6.18945 7.54102 6.32227 7.27539 6.32227C6.61133 6.32227 5.01758 3.86523 4.05469 1.07617C3.85547 0.544922 3.65625 0.3125 3.1582 0.3125H1.19922C0.667969 0.3125 0.535156 0.578125 0.535156 0.876953C0.535156 1.4082 1.19922 3.96484 3.62305 7.38477C5.25 9.70898 7.54102 10.9375 9.59961 10.9375C10.8281 10.9375 10.9941 10.6719 10.9941 10.207C10.9941 7.98242 10.8945 7.75 11.4922 7.75C11.791 7.75 12.2891 7.91602 13.4512 9.04492C14.7793 10.373 15.0117 10.9375 15.7422 10.9375H17.7012C18.2656 10.9375 18.5312 10.6719 18.3652 10.1074C18 8.97852 15.5098 6.58789 15.377 6.42188C15.0781 6.05664 15.1777 5.89062 15.377 5.55859C15.377 5.55859 17.7676 2.17188 18.0332 1.04297Z" fill="white"/>
</svg>
