<svg width="15" height="14" viewBox="0 0 15 14" fill="none" xmlns="http://www.w3.org/2000/svg">
<path d="M14.175 11.192C14.175 11.1256 14.175 11.0592 14.1466 10.9927C14.0801 10.7935 13.6153 10.5848 13.4256 10.49C12.8848 10.1864 12.3346 9.8923 11.8034 9.57924C11.5567 9.42746 11.2531 9.14286 10.9591 9.14286C10.3804 9.14286 9.53606 10.8599 9.02379 10.8599C8.76765 10.8599 8.43562 10.6228 8.20794 10.49C6.48138 9.53181 5.28606 8.3365 4.32792 6.60993C4.1951 6.38225 3.95794 6.05022 3.95794 5.79408C3.95794 5.28181 5.67501 4.4375 5.67501 3.85882C5.67501 3.56473 5.39042 3.26116 5.23863 3.01451C4.92557 2.48326 4.63149 1.93304 4.32792 1.3923C4.23305 1.20257 4.02434 0.737723 3.82513 0.671316C3.75872 0.642856 3.69231 0.642856 3.62591 0.642856C3.28439 0.642856 2.62033 0.794643 2.30727 0.936941C1.84242 1.13616 1.53885 1.66741 1.30169 2.09431C0.998117 2.65402 0.817871 3.22321 0.817871 3.85882C0.817871 4.74107 1.17836 5.53795 1.47245 6.34431C1.68115 6.92299 1.93729 7.4827 2.25984 8.00446C3.25593 9.61719 5.20068 11.5619 6.81341 12.558C7.33517 12.8806 7.89488 13.1367 8.47356 13.3454C9.27992 13.6395 10.0768 14 10.9591 14C11.5947 14 12.1639 13.8198 12.7236 13.5162C13.1505 13.279 13.6817 12.9754 13.8809 12.5106C14.0232 12.1975 14.175 11.5335 14.175 11.192Z" fill="white"/>
</svg>
