<svg width="11" height="18" viewBox="0 0 11 18" fill="none" xmlns="http://www.w3.org/2000/svg">
<path d="M9.31836 11.2148C10.3809 10.5176 10.8789 10.1191 10.4473 9.25586C10.2148 8.79102 9.51758 8.39258 8.6543 9.08984C8.6543 9.08984 7.42578 10.0527 5.5 10.0527C3.54102 10.0527 2.3457 9.08984 2.3457 9.08984C1.44922 8.35938 0.785156 8.79102 0.519531 9.25586C0.121094 10.1191 0.585938 10.5176 1.64844 11.2148C2.57812 11.8125 3.83984 12.0449 4.66992 12.1113L3.97266 12.8086C3.00977 13.7715 2.11328 14.7012 1.44922 15.332C0.519531 16.2617 2.01367 17.7559 2.97656 16.8594L5.5 14.3027C6.46289 15.2988 7.39258 16.2285 8.02344 16.8594C8.95312 17.7891 10.4805 16.2949 9.55078 15.332L7.02734 12.8086L6.33008 12.1113C7.16016 12.0449 8.38867 11.8125 9.31836 11.2148ZM1.18359 4.44141C1.18359 6.83203 3.10938 8.75781 5.5 8.75781C7.85742 8.75781 9.7832 6.83203 9.7832 4.44141C9.7832 2.05078 7.85742 0.125 5.5 0.125C3.10938 0.125 1.18359 2.05078 1.18359 4.44141ZM3.375 4.44141C3.375 3.2793 4.30469 2.31641 5.5 2.31641C6.66211 2.31641 7.5918 3.2793 7.5918 4.44141C7.5918 5.60352 6.66211 6.56641 5.5 6.56641C4.30469 6.56641 3.375 5.60352 3.375 4.44141Z" fill="white"/>
</svg>
